#!OML:ASF H:\Male1\Project 1\Capture day 1\Session 1\Male1.ASF
:FULLY-SPECIFIED
:DEGREES
614
root 4.67193 15.2374 -0.340344 9.87929 -99.4343 -14.5912
lowerback 4.83575 1.24902 0.383263
upperback 2.18227 1.62806 -0.951819
thorax -0.4302 0.801715 -1.2734
lowerneck -5.39007 5.95213 10.4251
upperneck 0.858643 7.2626 -2.59064
head 1.73381 3.61049 -2.39143
rclavicle -1.05946e-014 -5.46658e-015
rhumerus 10.1484 36.8914 -63.3366
rradius 60.3928
rwrist -25.1933
rhand -9.1803 0.0880574
rfingers 7.12502
rthumb 16.7729 -29.2074
lclavicle -1.05946e-014 -5.46658e-015
lhumerus 48.7562 -42.457 31.3754
lradius 45.3241
lwrist 1.1485
lhand 20.7864 7.70591
lfingers 7.12502
lthumb 45.2669 31.0995
rfemur -9.6117 12.2322 18.9422
rtibia 34.9275
rfoot -27.6535 -25.6327
rtoes -18.5756
lfemur -0.127321 -12.7424 -18.7794
ltibia 31.5178
lfoot -24.4301 23.7123
ltoes 1.56937
615
root 4.71002 15.2369 -0.412808 9.41393 -99.609 -14.0688
lowerback 5.20083 1.10434 0.590191
upperback 2.24762 1.44103 -0.969951
thorax -0.565238 0.707452 -1.40589
lowerneck -5.35745 6.06087 10.5936
upperneck 1.24901 7.40713 -2.76601
head 1.88484 3.69315 -2.47042
rclavicle -2.63607e-014 -4.27387e-015
rhumerus 7.75057 37.2009 -64.9676
rradius 60.9727
rwrist -25.8808
rhand -9.73704 -0.632921
rfingers 7.12502
rthumb 16.2369 -29.973
lclavicle -2.63607e-014 -4.27387e-015
lhumerus 46.2309 -45.7339 34.401
lradius 46.6315
lwrist 1.35587
lhand 12.3838 3.57754
lfingers 7.12502
lthumb 37.3837 29.5418
rfemur -9.85914 11.6362 19.1849
rtibia 34.8742
rfoot -26.9576 -25.15
rtoes -18.7721
lfemur -0.562083 -11.8958 -18.0955
ltibia 31.9086
lfoot -23.4356 23.1255
ltoes -0.0580421
616
root 4.74976 15.2392 -0.489443 9.19806 -99.6172 -13.8068
lowerback 5.45208 0.931627 0.688553
upperback 2.44562 1.20954 -1.00425
thorax -0.505338 0.590741 -1.48618
lowerneck -5.40312 6.13167 10.5951
upperneck 1.50633 7.49717 -2.78663
head 1.98642 3.74514 -2.46918
rclavicle 2.40716e-015 1.28216e-014
rhumerus 5.69419 37.4661 -66.5695
rradius 61.1525
rwrist -26.9435
rhand -10.2026 -1.38022
rfingers 7.12502
rthumb 15.7885 -30.7563
lclavicle 2.40716e-015 1.28216e-014
lhumerus 44.5363 -48.3732 36.9718
lradius 46.0923
lwrist -0.625703
lhand 6.34465 -1.88546
lfingers 7.12502
lthumb 31.6517 25.3897
rfemur -10.0842 10.8146 19.4092
rtibia 34.8074
rfoot -26.1423 -24.7165
rtoes -19.6498
lfemur -1.01024 -11.3433 -17.4972
ltibia 32.2353
lfoot -22.475 22.893
ltoes -1.40521
617
root 4.79608 15.243 -0.573274 8.66188 -99.5511 -13.2422
lowerback 5.67033 0.82151 0.695112
upperback 2.7416 1.05469 -1.00276
thorax -0.327136 0.511551 -1.48034
lowerneck -5.32603 6.12283 10.6851
upperneck 1.48377 7.49861 -3.0153
head 1.98176 3.74301 -2.56483
rclavicle -2.17328e-014 -4.02539e-015
rhumerus 3.80365 37.4587 -68.2742
rradius 60.8616
rwrist -27.7838
rhand -10.902 -1.85859
rfingers 7.12502
rthumb 15.1149 -31.2867
lclavicle -2.17328e-014 -4.02539e-015
lhumerus 42.8526 -50.3728 39.9674
lradius 45.4776
lwrist -2.68134
lhand 2.93719 -3.89726
lfingers 7.12502
lthumb 28.4005 23.968
rfemur -10.2976 10.1734 19.7695
rtibia 34.7728
rfoot -25.5823 -24.4023
rtoes -20.3157
lfemur -1.4185 -11.0481 -16.8938
ltibia 32.4266
lfoot -21.7729 22.8807
ltoes -1.65402
618
root 4.84599 15.2488 -0.660483 7.90849 -99.3683 -12.4408
lowerback 5.90722 0.719664 0.618173
upperback 3.03638 0.906475 -0.936514
thorax -0.162573 0.433963 -1.36161
lowerneck -5.47819 6.16553 10.5255
upperneck 1.68464 7.54755 -2.95839
head 2.06893 3.77197 -2.50804
rclavicle -1.79714e-014 9.0447e-015
rhumerus 1.99495 37.3978 -70.0688
rradius 60.2034
rwrist -28.3265
rhand -11.9061 -2.00234
rfingers 7.12502
rthumb 14.1475 -31.5007
lclavicle -1.79714e-014 9.0447e-015
lhumerus 41.0399 -51.9194 43.263
lradius 45.33
lwrist -2.29708
lhand 4.02391 -3.84133
lfingers 7.12502
lthumb 29.4385 23.8462
rfemur -10.5144 9.91437 20.264
rtibia 34.7584
rfoot -25.4029 -24.3386
rtoes -20.1376
lfemur -1.79902 -11.0328 -16.32
ltibia 32.5138
lfoot -21.5234 22.9828
ltoes -0.961295
619
root 4.89604 15.2536 -0.744563 9.77474 -98.9859 -14.1867
lowerback 6.02593 0.540697 0.174279
upperback 3.29698 0.636305 -0.949821
thorax 0.0267887 0.29114 -1.11013
lowerneck -5.8243 6.30219 10.1158
upperneck 2.05395 7.70684 -2.63748
head 2.22836 3.86163 -2.30455
rclavicle 3.68311e-014 -3.23025e-015
rhumerus 0.300265 37.4196 -71.8689
rradius 59.3794
rwrist -28.8588
rhand -12.8328 -1.94848
rfingers 7.12502
rthumb 13.2544 -31.5071
lclavicle 3.68311e-014 -3.23025e-015
lhumerus 39.1959 -53.3122 46.3374
lradius 45.4644
lwrist -1.71639
lhand 5.43599 -2.49453
lfingers 7.12502
lthumb 30.7857 24.9476
rfemur -10.7569 9.55104 20.3318
rtibia 34.7255
rfoot -25.466 -24.2783
rtoes -19.3272
lfemur -2.26772 -11.2772 -16.2501
ltibia 32.5717
lfoot -21.4879 23.254
ltoes 0.267891
620
root 4.94376 15.2557 -0.82015 12.9853 -98.7473 -17.232
lowerback 5.99069 0.440398 -0.291359
upperback 3.57596 0.469869 -1.09159
thorax 0.32718 0.19905 -0.983579
lowerneck -5.81102 6.32559 9.90556
upperneck 1.85462 7.75789 -2.66268
head 2.15285 3.87985 -2.27499
rclavicle 1.87386e-014 -3.62782e-015
rhumerus -1.32034 37.1867 -73.7264
rradius 58.5469
rwrist -29.6236
rhand -13.1602 -2.05109
rfingers 7.12502
rthumb 12.9388 -31.6299
lclavicle 1.87386e-014 -3.62782e-015
lhumerus 37.3851 -54.3015 49.3215
lradius 45.6173
lwrist -3.0238
lhand 8.86904 -1.12937
lfingers 7.12502
lthumb 34.0529 25.6426
rfemur -11.0413 9.01661 20.113
rtibia 34.6708
rfoot -25.5888 -23.9018
rtoes -17.9918
lfemur -2.75944 -11.696 -16.5722
ltibia 32.6472
lfoot -21.9007 23.8753
ltoes 2.84678
621
root 4.98412 15.2572 -0.887589 12.2706 -98.8489 -16.4267
lowerback 6.37004 0.522484 -0.0534059
upperback 3.60686 0.582572 -1.20917
thorax 0.1544 0.257578 -1.24759
lowerneck -5.46557 6.23399 9.88304
upperneck 1.49793 7.6795 -2.74609
head 1.96912 3.83259 -2.31631
rclavicle -6.91912e-015 -5.33535e-015
rhumerus -3.52148 36.6558 -76.1066
rradius 57.7714
rwrist -30.3086
rhand -13.2071 -2.70268
rfingers 7.12502
rthumb 12.8935 -32.2844
lclavicle -6.91912e-015 -5.33535e-015
lhumerus 35.5524 -55.7279 51.9735
lradius 45.7313
lwrist -4.36208
lhand 11.7194 0.100998
lfingers 7.12502
lthumb 36.7553 26.2283
rfemur -11.2634 8.83239 20.4356
rtibia 34.6086
rfoot -25.6633 -23.447
rtoes -16.5723
lfemur -3.02491 -12.0214 -16.5514
ltibia 32.7644
lfoot -23.1491 24.7035
ltoes 6.76725
622
root 5.04992 15.2636 -0.973774 12.4158 -98.3713 -16.1715
lowerback 6.51425 0.463016 -0.0993023
upperback 3.67588 0.49659 -1.23432
thorax 0.143597 0.212687 -1.24341
lowerneck -5.37107 6.17315 10.021
upperneck 1.10885 7.60398 -2.90607
head 1.83331 3.78328 -2.40518
rclavicle -2.03226e-014 -2.23633e-016
rhumerus -5.20968 36.1759 -78.1461
rradius 57.0849
rwrist -31.0293
rhand -13.5714 -3.72536
rfingers 7.12502
rthumb 12.5423 -33.3289
lclavicle -2.03226e-014 -2.23633e-016
lhumerus 34.1944 -56.9626 53.9746
lradius 45.9656
lwrist -5.40003
lhand 14.2132 1.21796
lfingers 7.12502
lthumb 39.1105 26.7062
rfemur -11.8226 8.82743 20.9247
rtibia 34.5621
rfoot -25.936 -23.647
rtoes -15.5075
lfemur -3.96225 -11.6475 -16.0473
ltibia 32.9119
lfoot -23.5789 24.9139
ltoes 8.21812
623
root 5.1114 15.2609 -1.05317 13.4617 -97.9025 -17.0834
lowerback 6.8212 0.422803 -0.247944
upperback 3.789 0.425638 -1.26766
thorax 0.0878369 0.172393 -1.19172
lowerneck -5.2843 6.06407 10.1226
upperneck 0.862004 7.47068 -3.15933
head 1.74515 3.70796 -2.52008
rclavicle -3.78374e-014 1.52567e-014
rhumerus -6.80302 36.0974 -79.8769
rradius 56.5282
rwrist -31.8326
rhand -13.5566 -5.42537
rfingers 7.12502
rthumb 12.5567 -35.028
lclavicle -3.78374e-014 1.52567e-014
lhumerus 32.2926 -57.9808 56.2404
lradius 46.3251
lwrist -6.23183
lhand 16.0757 1.21197
lfingers 7.12502
lthumb 40.8632 26.1717
rfemur -12.1255 8.85471 21.2251
rtibia 34.5676
rfoot -26.2976 -23.8557
rtoes -14.5745
lfemur -4.62089 -11.14 -15.8891
ltibia 33.0876
lfoot -24.2798 25.0238
ltoes 8.83725
624
root 5.16504 15.2608 -1.12068 15.7205 -97.5798 -19.1565
lowerback 6.80655 0.429386 -0.417031
upperback 3.99989 0.418159 -1.33793
thorax 0.312503 0.163593 -1.168
lowerneck -5.31421 5.92445 10.0198
upperneck 0.537624 7.29583 -3.39249
head 1.63813 3.60879 -2.59088
rclavicle 1.41075e-014 -3.67752e-015
rhumerus -8.04089 36.1566 -81.2091
rradius 55.9719
rwrist -32.3638
rhand -13.9431 -4.82996
rfingers 7.12502
rthumb 12.184 -34.4551
lclavicle 1.41075e-014 -3.67752e-015
lhumerus 30.3528 -58.6767 58.5204
lradius 46.5403
lwrist -6.40674
lhand 16.5563 0.298498
lfingers 7.12502
lthumb 41.3145 25.1141
rfemur -12.5214 8.78819 21.2349
rtibia 34.6241
rfoot -26.7354 -23.7797
rtoes -13.184
lfemur -5.2733 -10.5662 -16.0945
ltibia 33.3244
lfoot -25.4029 24.933
ltoes 9.37551
625
root 5.22394 15.2603 -1.18565 19.5002 -97.2142 -22.6896
lowerback 6.94016 0.44349 -0.75815
upperback 4.00357 0.412581 -1.42659
thorax 0.240424 0.155081 -1.0683
lowerneck -5.21891 5.70395 9.94917
upperneck 0.315587 7.0232 -3.58612
head 1.53493 3.46589 -2.66084
rclavicle 1.5791e-014 1.25731e-014
rhumerus -9.49567 36.136 -82.6038
rradius 55.4586
rwrist -32.8122
rhand -13.8241 -4.45771
rfingers 7.12502
rthumb 12.2987 -34.076
lclavicle 1.5791e-014 1.25731e-014
lhumerus 27.8104 -59.4295 61.3205
lradius 46.6479
lwrist -5.88947
lhand 15.6072 -0.34353
lfingers 7.12502
lthumb 40.4229 24.7535
rfemur -13.0289 8.49902 21.0635
rtibia 34.7278
rfoot -27.0708 -23.5988
rtoes -12.2013
lfemur -6.00684 -9.67114 -16.465
ltibia 33.6533
lfoot -26.2846 24.4683
ltoes 8.0923
626
root 5.28582 15.2576 -1.2436 19.7891 -96.6698 -22.798
lowerback 7.1343 0.456719 -0.524416
upperback 4.02835 0.44033 -1.3944
thorax 0.160691 0.171949 -1.16957
lowerneck -5.34 5.52963 9.93423
upperneck 0.242129 6.78368 -3.74733
head 1.52233 3.34159 -2.72147
rclavicle -3.05631e-015 -1.78906e-015
rhumerus -10.8799 35.9626 -83.8688
rradius 55.1152
rwrist -33.5849
rhand -13.6853 -4.08887
rfingers 7.12502
rthumb 12.4325 -33.6991
lclavicle -3.05631e-015 -1.78906e-015
lhumerus 25.303 -60.0819 63.9646
lradius 46.6744
lwrist -4.97412
lhand 13.6271 -1.0478
lfingers 7.12502
lthumb 38.5578 24.5975
rfemur -13.4395 8.13838 21.4167
rtibia 34.8213
rfoot -27.3155 -23.406
rtoes -11.4126
lfemur -6.63321 -8.68199 -16.4261
ltibia 34.135
lfoot -26.8664 24.0003
ltoes 5.32222
627
root 5.35078 15.259 -1.29623 19.533 -96.1457 -22.323
lowerback 7.28593 0.451891 -0.242514
upperback 4.03365 0.450537 -1.30204
thorax 0.0841793 0.180782 -1.23462
lowerneck -5.36215 5.37719 9.61456
upperneck 0.0812508 6.59506 -3.63458
head 1.44068 3.24437 -2.63413
rclavicle 3.10601e-016 1.09829e-014
rhumerus -12.262 35.8133 -85.0084
rradius 54.9649
rwrist -34.4293
rhand -13.7466 -3.61611
rfingers 7.12502
rthumb 12.3734 -33.2299
lclavicle 3.10601e-016 1.09829e-014
lhumerus 22.6194 -60.307 66.7862
lradius 46.4683
lwrist -4.14204
lhand 11.4224 -1.79131
lfingers 7.12502
lthumb 36.4741 24.4073
rfemur -13.904 7.80459 21.7978
rtibia 34.9099
rfoot -27.4935 -23.1816
rtoes -10.4849
lfemur -7.25703 -7.69083 -16.4531
ltibia 34.784
lfoot -27.1126 23.6516
ltoes 2.78131
